<?xml version="1.0" standalone="no"?>
<!DOCTYPE svg PUBLIC "-//W3C//DTD SVG 20010904//EN"
 "http://www.w3.org/TR/2001/REC-SVG-20010904/DTD/svg10.dtd">
<svg version="1.0" xmlns="http://www.w3.org/2000/svg"
 width="3508.000000pt" height="2481.000000pt" viewBox="0 0 3508.000000 2481.000000"
 preserveAspectRatio="xMidYMid meet">
<metadata>
Created by potrace 1.16, written by Peter Selinger 2001-2019
</metadata>
<g transform="translate(0.000000,2481.000000) scale(0.100000,-0.100000)"
fill="#000000" stroke="none">
<path d="M17315 17700 c-807 -40 -1647 -281 -2337 -669 -326 -183 -726 -468
-943 -672 -38 -36 -84 -75 -100 -86 l-30 -21 -133 144 c-144 156 -171 179
-200 170 -29 -9 -323 -313 -442 -456 -757 -912 -1195 -1946 -1326 -3135 -34
-309 -33 -848 1 -1180 121 -1180 559 -2222 1321 -3140 139 -168 552 -581 719
-719 225 -187 581 -443 702 -505 23 -11 58 -35 77 -51 63 -56 453 -253 724
-366 204 -85 583 -212 792 -264 894 -222 1849 -234 2720 -34 917 212 1741 622
2460 1227 172 144 240 210 240 230 0 27 -300 337 -326 337 -14 0 -74 -46 -157
-118 -881 -771 -1962 -1225 -3127 -1312 -174 -13 -576 -13 -755 0 -205 15
-440 46 -610 81 -82 17 -151 32 -152 33 -2 1 15 88 37 193 22 106 42 209 44
230 l5 39 -147 38 c-840 218 -1560 624 -2176 1225 -817 799 -1316 1831 -1443
2981 -21 195 -24 696 -5 880 171 1650 976 2924 2387 3775 160 97 500 264 677
333 607 238 1158 332 1858 319 319 -6 424 -16 738 -67 100 -17 189 -30 196
-30 7 0 20 24 29 53 34 110 89 369 83 392 -7 29 -32 37 -186 64 -391 69 -847
99 -1215 81z"/>
<path d="M15542 13607 c-21 -22 -22 -32 -22 -226 0 -120 4 -210 10 -222 10
-18 28 -19 645 -19 411 0 635 -3 635 -10 0 -5 -33 -47 -73 -92 -40 -46 -293
-339 -562 -653 -269 -313 -526 -610 -573 -658 -123 -129 -127 -142 -125 -362
2 -158 4 -181 19 -192 26 -19 1992 -19 2018 0 16 12 18 34 19 224 0 159 -3
216 -12 227 -12 14 -92 16 -673 18 l-659 3 553 646 c304 355 594 689 644 743
50 53 104 120 120 149 29 52 29 53 31 239 2 174 0 189 -17 198 -12 6 -360 10
-988 10 l-969 0 -21 -23z"/>
<path d="M18113 13610 l-33 -20 0 -1205 c0 -1187 0 -1204 20 -1215 13 -7 309
-9 935 -8 801 3 917 5 925 18 6 9 9 105 7 230 l-2 214 -25 13 c-19 10 -168 13
-658 13 l-632 0 -8 23 c-4 12 -5 123 -2 247 l5 225 636 5 c564 4 638 7 660 21
l24 16 1 217 c0 173 -2 219 -13 228 -10 8 -189 12 -653 12 -465 1 -642 4 -650
12 -10 10 -16 291 -11 457 1 16 38 17 637 17 617 0 637 1 664 20 l27 20 0 214
c0 118 -3 220 -8 228 -7 11 -167 13 -911 16 -886 2 -904 2 -935 -18z"/>
<path d="M20642 13614 l-22 -15 0 -1203 c0 -921 3 -1205 12 -1214 9 -9 205
-12 819 -12 l807 0 17 73 c27 116 75 360 75 382 0 20 -6 20 -597 18 -370 -2
-604 1 -613 7 -13 8 -15 47 -16 242 -1 128 3 241 8 251 8 16 45 17 637 15
l629 -3 6 44 c8 57 8 278 0 372 l-6 74 -452 -8 c-602 -10 -804 -7 -816 13 -12
19 -13 450 -1 469 7 12 107 13 615 12 494 -2 606 0 606 11 0 17 -75 382 -89
434 l-11 41 -287 6 c-157 4 -514 7 -792 7 -442 0 -509 -2 -529 -16z"/>
</g>
</svg>
